<?xml version="1.0" encoding="UTF-8"?>
<!-- Generator: visioncortex VTracer 0.6.3 -->
<svg version="1.1" xmlns="http://www.w3.org/2000/svg" width="1280" height="1280">
<path d="M0 0 C10.01 -0.05 20.03 -0.08 30.04 -0.1 C34.69 -0.11 39.35 -0.13 44 -0.15 C48.49 -0.17 52.98 -0.18 57.48 -0.19 C59.18 -0.19 60.89 -0.2 62.6 -0.21 C70.98 -0.26 78.87 -0.28 87 2 C89.29 2.2 91.58 2.35 93.88 2.44 C100.09 2.78 106.16 3.52 112.31 4.5 C113.14 4.63 113.97 4.76 114.83 4.9 C120.73 5.86 120.73 5.86 123 7 C124.95 7.32 126.91 7.61 128.88 7.88 C134.41 8.69 139.74 9.86 145.16 11.28 C148.62 12.16 152.1 12.85 155.6 13.53 C158.09 14.02 160.58 14.53 163.06 15.06 C163.8 15.22 164.53 15.37 165.29 15.54 C167 16 167 16 168 17 C168.99 17.12 169.98 17.25 171 17.38 C174.61 17.86 177.84 18.84 181.27 20.05 C185.94 21.68 190.65 23.18 195.35 24.72 C198.98 25.99 202.47 27.48 206 29 C207.87 29.63 209.74 30.23 211.62 30.81 C217.27 32.65 222.51 35.02 227.86 37.57 C230.64 38.83 233.36 39.86 236.25 40.81 C243.57 43.36 250.22 47.25 257.01 50.94 C259.68 52.36 262.4 53.68 265.12 55 C270.5 57.65 275.58 60.69 280.68 63.8 C285.02 66.45 289.4 68.84 294 71 C294 71.66 294 72.32 294 73 C294.58 73.12 295.17 73.24 295.77 73.36 C298.11 74.03 299.68 74.91 301.7 76.27 C302.76 76.97 302.76 76.97 303.84 77.69 C304.59 78.21 305.35 78.72 306.12 79.25 C306.91 79.78 307.7 80.32 308.52 80.86 C320.65 89.1 332.59 97.51 343.71 107.07 C346.05 109.11 346.05 109.11 349 111 C349 111.66 349 112.32 349 113 C351.47 113.99 351.47 113.99 354 115 C354 115.66 354 116.32 354 117 C354.79 117.32 354.79 117.32 355.6 117.64 C358.99 119.56 361.61 122.14 364.44 124.81 C365 125.33 365.56 125.86 366.13 126.39 C368.72 128.8 371.24 131.25 373.72 133.76 C375.99 136.13 375.99 136.13 379 138 C379 138.66 379 139.32 379 140 C379.99 140.33 380.98 140.66 382 141 C382 141.66 382 142.32 382 143 C382.66 143 383.32 143 384 143 C385.45 144.47 385.45 144.47 387.12 146.5 C389.6 149.42 392.13 152.16 394.88 154.81 C406.89 166.66 406.89 166.66 409 173 C409.99 173.33 410.98 173.66 412 174 C413.61 175.88 415.1 177.76 416.56 179.75 C417.46 180.95 418.36 182.14 419.25 183.34 C419.71 183.95 420.17 184.56 420.64 185.19 C421.91 186.89 423.21 188.56 424.53 190.23 C430.37 197.64 435.66 205.33 440.81 213.24 C442.08 215.12 443.43 216.94 444.79 218.76 C447 222 447 222 447 225 C447.66 225 448.32 225 449 225 C451.04 227.91 452 229.4 452 233 C452.66 233 453.32 233 454 233 C454.56 234.16 454.56 234.16 455.14 235.34 C455.65 236.39 456.16 237.43 456.69 238.5 C457.19 239.52 457.69 240.54 458.2 241.59 C459.91 244.83 461.78 247.88 463.74 250.97 C470.18 261.34 475.23 272.44 479.91 283.69 C481.51 287.56 483.15 291.37 485.07 295.1 C487.1 299.07 488.58 303.15 490 307.38 C491.59 312 493.19 316.6 495.06 321.12 C499.23 331.36 502.33 341.88 505.09 352.56 C505.87 355.51 506.72 358.41 507.62 361.31 C508.84 365.28 509.7 369.23 510.46 373.3 C511.08 376.39 511.82 379.44 512.56 382.5 C513.68 387.27 514.37 391.88 514.76 396.75 C515.05 399.5 515.75 402.1 516.46 404.77 C520.53 421.61 520.15 439.26 520.13 456.47 C520.13 458.4 520.13 460.34 520.14 462.27 C520.14 466.3 520.14 470.33 520.13 474.35 C520.12 479.47 520.13 484.59 520.13 489.7 C520.14 493.69 520.14 497.67 520.13 501.66 C520.13 503.55 520.13 505.43 520.14 507.31 C520.15 525.43 519.6 543.17 515.43 560.89 C514.98 563.08 514.72 565.22 514.5 567.44 C513.91 573.34 512.96 579.2 511.03 584.83 C509.48 589.61 508.7 594.51 507.78 599.44 C507.11 602.52 506.21 605.11 505 608 C504.65 609.41 504.34 610.83 504.06 612.25 C503.24 616.14 502.09 619.79 500.79 623.53 C499.55 627.4 498.66 631.35 497.75 635.3 C497.06 637.77 496.19 639.75 495 642 C494.53 643.58 494.06 645.16 493.62 646.75 C491.56 654.16 489.41 661.39 486.13 668.36 C484.27 672.71 482.79 677.21 481.28 681.71 C479.79 686.07 478.02 690.12 475.9 694.22 C474.82 696.35 473.96 698.52 473.12 700.75 C471.2 705.69 468.84 710.35 466.43 715.07 C465.18 717.63 464.12 720.15 463.12 722.81 C461.19 727.83 458.69 732.49 456.13 737.2 C453.88 741.35 451.72 745.52 449.62 749.75 C443.07 762.91 436.32 775.85 428.49 788.3 C428.05 789.01 427.61 789.71 427.15 790.44 C426.76 791.05 426.37 791.67 425.96 792.31 C424.84 794.15 424.84 794.15 424 797 C423.34 797 422.68 797 422 797 C421.89 797.57 421.77 798.14 421.65 798.73 C420.93 801.23 419.9 803.11 418.56 805.34 C418.06 806.17 417.56 807 417.05 807.86 C416.52 808.73 415.99 809.6 415.44 810.5 C414.9 811.39 414.36 812.29 413.8 813.21 C410.19 819.14 406.46 824.97 402.52 830.69 C401.17 832.74 400.04 834.77 399 837 C398.34 837 397.68 837 397 837 C396.77 837.67 396.55 838.33 396.32 839.02 C394.61 842.89 392.33 846.21 389.94 849.69 C386.76 854.22 386.76 854.22 384 859 C383.34 859 382.68 859 382 859 C381.84 859.86 381.84 859.86 381.68 860.74 C380.89 863.36 379.75 865.02 378.13 867.22 C377.55 868.01 376.98 868.79 376.39 869.6 C375.79 870.41 375.18 871.23 374.56 872.06 C373.38 873.68 372.19 875.29 371 876.91 C370.21 877.98 370.21 877.98 369.4 879.07 C368.23 880.69 367.11 882.34 366 884 C365.34 884 364.68 884 364 884 C364 884.99 364 885.98 364 887 C363.34 887 362.68 887 362 887 C361.69 887.78 361.38 888.57 361.06 889.38 C360 892 360 892 359 894 C358.34 894 357.68 894 357 894 C356.75 894.54 356.5 895.07 356.25 895.62 C354.69 898.58 352.97 901.3 351 904 C350.34 904 349.68 904 349 904 C348.79 904.66 348.59 905.32 348.38 906 C346.51 910.07 344.02 913.69 341 917 C340.34 917 339.68 917 339 917 C338.75 917.72 338.5 918.43 338.25 919.17 C336.86 922.31 335.16 924.64 333 927.31 C332.3 928.2 331.6 929.08 330.88 929.99 C330.26 930.65 329.64 931.32 329 932 C328.34 932 327.68 932 327 932 C326.67 933.32 326.34 934.64 326 936 C325.34 936 324.68 936 324 936 C323.69 936.62 323.38 937.24 323.06 937.88 C322.38 939.25 321.69 940.62 321 942 C320.34 942 319.68 942 319 942 C318.73 942.57 318.46 943.14 318.19 943.73 C316.96 946.08 315.57 948.12 314 950.25 C313.23 951.31 313.23 951.31 312.44 952.39 C311.96 952.92 311.49 953.45 311 954 C310.34 954 309.68 954 309 954 C308.73 954.59 308.45 955.18 308.17 955.79 C307.03 957.94 305.82 959.56 304.21 961.38 C303.68 961.99 303.15 962.6 302.61 963.23 C302.06 963.86 301.51 964.48 300.94 965.12 C299.84 966.38 298.75 967.63 297.65 968.88 C297.17 969.43 296.68 969.98 296.18 970.55 C294.9 972.01 294.9 972.01 294 974 C293.34 974 292.68 974 292 974 C291.67 974.99 291.34 975.98 291 977 C290.34 977 289.68 977 289 977 C288.77 977.54 288.55 978.09 288.32 978.65 C286.59 981.74 284.35 984.04 281.94 986.62 C278.58 990.04 278.58 990.04 276 994 C275.34 994 274.68 994 274 994 C273.74 994.59 273.49 995.17 273.22 995.77 C271.89 998.19 270.43 999.73 268.44 1001.62 C265.86 1004.05 265.86 1004.05 264 1007 C263.34 1007 262.68 1007 262 1007 C261.63 1007.86 261.63 1007.86 261.25 1008.74 C259.8 1011.36 258.1 1013.06 255.94 1015.12 C253.08 1017.78 253.08 1017.78 251 1021 C250.34 1021 249.68 1021 249 1021 C248.75 1021.58 248.49 1022.16 248.23 1022.76 C246.86 1025.25 245.33 1026.88 243.3 1028.86 C242.56 1029.59 241.83 1030.31 241.07 1031.05 C240.31 1031.8 239.54 1032.54 238.75 1033.31 C234.05 1037.9 229.5 1042.48 225.28 1047.52 C223.65 1049.41 221.86 1051.02 219.94 1052.62 C216.79 1055.27 213.9 1058.08 211 1061 C210.16 1061.85 209.32 1062.69 208.45 1063.57 C207.56 1064.46 206.68 1065.35 205.76 1066.27 C204.25 1067.79 202.74 1069.3 201.24 1070.82 C200.21 1071.85 199.18 1072.89 198.16 1073.92 C192.81 1079.31 187.47 1084.64 181.67 1089.54 C179.89 1091.09 178.26 1092.74 176.62 1094.44 C174 1097 174 1097 172 1097 C172 1097.66 172 1098.32 172 1099 C166.52 1104 166.52 1104 164 1104 C163.67 1104.99 163.34 1105.98 163 1107 C162.34 1107 161.68 1107 161 1107 C161 1107.66 161 1108.32 161 1109 C160.34 1109 159.68 1109 159 1109 C159 1109.66 159 1110.32 159 1111 C157.31 1112.56 155.54 1114.05 153.75 1115.5 C152.78 1116.29 151.8 1117.09 150.8 1117.91 C148.55 1119.59 146.55 1120.88 144 1122 C144 1122.66 144 1123.32 144 1124 C143.34 1124 142.68 1124 142 1124 C141.67 1124.99 141.34 1125.98 141 1127 C140.34 1127 139.68 1127 139 1127 C139 1127.66 139 1128.32 139 1129 C137.37 1130.48 135.67 1131.88 133.94 1133.25 C130.54 1135.96 127.19 1138.68 123.94 1141.56 C121 1144 121 1144 119 1144 C119 1144.66 119 1145.32 119 1146 C116.88 1147.95 116.88 1147.95 114.12 1150.12 C113.22 1150.85 112.32 1151.57 111.38 1152.32 C109 1154 109 1154 107 1154 C106.67 1154.99 106.34 1155.98 106 1157 C105.34 1157 104.68 1157 104 1157 C104 1157.66 104 1158.32 104 1159 C102.17 1160.62 102.17 1160.62 99.75 1162.44 C98.96 1163.03 98.17 1163.63 97.36 1164.25 C96.58 1164.82 95.8 1165.4 95 1166 C94.28 1166.57 93.57 1167.14 92.83 1167.72 C91 1169 91 1169 89 1169 C89 1169.66 89 1170.32 89 1171 C87.32 1172.51 87.32 1172.51 85.12 1174.12 C84.41 1174.66 83.69 1175.2 82.95 1175.76 C81 1177 81 1177 79 1177 C79 1177.66 79 1178.32 79 1179 C76.91 1180.8 74.82 1182.47 72.62 1184.12 C72.02 1184.59 71.42 1185.06 70.8 1185.54 C66.26 1189 66.26 1189 64 1189 C64 1189.66 64 1190.32 64 1191 C62.28 1192.42 60.5 1193.77 58.69 1195.06 C57.21 1196.13 57.21 1196.13 55.7 1197.22 C48.88 1201.71 38.84 1201.4 31 1200 C25.99 1198.02 21.81 1194.78 18 1191 C18 1190.34 18 1189.68 18 1189 C17.34 1188.81 16.68 1188.63 16 1188.44 C12.53 1186.77 10.23 1184.66 7.4 1182.08 C3.58 1178.77 -0.55 1175.87 -4.66 1172.92 C-5.43 1172.29 -6.2 1171.65 -7 1171 C-7 1170.34 -7 1169.68 -7 1169 C-7.66 1168.81 -8.32 1168.63 -9 1168.44 C-12.67 1166.68 -15.25 1164.3 -18.23 1161.56 C-19.93 1159.93 -19.93 1159.93 -22 1159 C-22 1158.34 -22 1157.68 -22 1157 C-22.99 1156.67 -23.98 1156.34 -25 1156 C-25 1155.34 -25 1154.68 -25 1154 C-25.68 1153.79 -26.36 1153.59 -27.06 1153.38 C-30.92 1151.57 -34.08 1149.1 -37 1146 C-37 1145.34 -37 1144.68 -37 1144 C-37.87 1143.6 -37.87 1143.6 -38.75 1143.19 C-41.06 1141.97 -43.02 1140.7 -45 1139 C-45 1138.34 -45 1137.68 -45 1137 C-45.58 1136.74 -46.15 1136.48 -46.75 1136.22 C-49.19 1134.9 -51.01 1133.37 -53.06 1131.5 C-55.33 1129.44 -57.44 1127.71 -60 1126 C-60 1125.34 -60 1124.68 -60 1124 C-60.66 1124 -61.32 1124 -62 1124 C-62 1123.34 -62 1122.68 -62 1122 C-62.54 1121.77 -63.09 1121.55 -63.65 1121.32 C-66.74 1119.59 -69.04 1117.35 -71.62 1114.94 C-75.04 1111.58 -75.04 1111.58 -79 1109 C-79 1108.34 -79 1107.68 -79 1107 C-79.99 1106.67 -80.98 1106.34 -82 1106 C-82 1105.34 -82 1104.68 -82 1104 C-82.87 1103.6 -82.87 1103.6 -83.75 1103.19 C-86.06 1101.97 -88.02 1100.7 -90 1099 C-90 1098.34 -90 1097.68 -90 1097 C-90.57 1096.75 -91.15 1096.51 -91.74 1096.25 C-94.36 1094.8 -96.06 1093.1 -98.12 1090.94 C-100.78 1088.08 -100.78 1088.08 -104 1086 C-104 1085.34 -104 1084.68 -104 1084 C-104.81 1083.68 -104.81 1083.68 -105.63 1083.35 C-108.86 1081.51 -111.28 1079 -113.87 1076.39 C-114.45 1075.82 -115.02 1075.24 -115.62 1074.65 C-117.51 1072.76 -119.41 1070.87 -121.3 1068.97 C-122.61 1067.65 -123.93 1066.34 -125.25 1065.02 C-128.01 1062.27 -130.76 1059.51 -133.51 1056.75 C-137.04 1053.21 -140.58 1049.67 -144.13 1046.14 C-146.85 1043.43 -149.56 1040.71 -152.28 1037.99 C-153.58 1036.68 -154.89 1035.38 -156.2 1034.08 C-158.02 1032.26 -159.83 1030.44 -161.65 1028.61 C-162.19 1028.07 -162.74 1027.53 -163.3 1026.97 C-167 1023.23 -167 1023.23 -167 1021 C-167.66 1021 -168.32 1021 -169 1021 C-170.59 1019.39 -170.59 1019.39 -172.38 1017.25 C-174.34 1014.93 -176.26 1012.75 -178.44 1010.62 C-180 1009 -180 1009 -180 1007 C-180.66 1007 -181.32 1007 -182 1007 C-183.62 1005.36 -183.62 1005.36 -185.44 1003.19 C-187.97 1000.18 -187.97 1000.18 -190.72 997.36 C-192 996 -192 996 -192 994 C-192.66 994 -193.32 994 -194 994 C-195.52 992.5 -195.52 992.5 -197.25 990.44 C-197.86 989.71 -198.48 988.99 -199.11 988.24 C-199.74 987.5 -200.36 986.76 -201 986 C-201.59 985.33 -202.18 984.67 -202.79 983.98 C-203.34 983.37 -203.88 982.76 -204.44 982.12 C-204.93 981.57 -205.42 981.02 -205.93 980.45 C-207 979 -207 979 -207 977 C-207.99 976.67 -208.98 976.34 -210 976 C-210 975.34 -210 974.68 -210 974 C-210.66 974 -211.32 974 -212 974 C-213.95 971.88 -213.95 971.88 -216.12 969.12 C-217.21 967.77 -217.21 967.77 -218.32 966.38 C-220 964 -220 964 -220 962 C-220.66 962 -221.32 962 -222 962 C-227 956.52 -227 956.52 -227 954 C-227.66 954 -228.32 954 -229 954 C-230.95 951.88 -230.95 951.88 -233.12 949.12 C-234.21 947.77 -234.21 947.77 -235.32 946.38 C-237 944 -237 944 -237 942 C-237.66 942 -238.32 942 -239 942 C-240.51 940.32 -240.51 940.32 -242.12 938.12 C-242.66 937.41 -243.2 936.69 -243.76 935.95 C-245 934 -245 934 -245 932 C-245.66 932 -246.32 932 -247 932 C-248.8 929.91 -250.47 927.82 -252.12 925.62 C-252.83 924.72 -252.83 924.72 -253.54 923.8 C-257 919.26 -257 919.26 -257 917 C-257.66 917 -258.32 917 -259 917 C-260.45 915.26 -261.81 913.46 -263.12 911.62 C-263.85 910.63 -264.57 909.63 -265.32 908.6 C-267 906 -267 906 -267 904 C-267.66 904 -268.32 904 -269 904 C-270.51 902.32 -270.51 902.32 -272.12 900.12 C-272.66 899.41 -273.2 898.69 -273.76 897.95 C-275 896 -275 896 -275 894 C-275.66 894 -276.32 894 -277 894 C-280 889.62 -280 889.62 -280 887 C-280.66 887 -281.32 887 -282 887 C-282 886.01 -282 885.02 -282 884 C-282.66 884 -283.32 884 -284 884 C-285.37 882.41 -285.37 882.41 -286.93 880.2 C-287.5 879.41 -288.07 878.62 -288.65 877.8 C-289.54 876.54 -289.54 876.54 -290.44 875.25 C-291.6 873.61 -292.77 871.97 -293.93 870.33 C-294.45 869.59 -294.97 868.86 -295.5 868.11 C-296.52 866.68 -297.58 865.28 -298.69 863.92 C-300 862 -300 862 -300 859 C-300.66 859 -301.32 859 -302 859 C-303.45 856.98 -303.45 856.98 -305.12 854.19 C-308.31 849 -311.79 844.15 -315.5 839.31 C-317 837 -317 837 -317 834 C-317.66 834 -318.32 834 -319 834 C-320.23 832.31 -320.23 832.31 -321.61 829.94 C-322.12 829.08 -322.63 828.22 -323.15 827.33 C-323.68 826.42 -324.21 825.5 -324.75 824.56 C-325.78 822.79 -326.82 821.02 -327.86 819.25 C-328.37 818.38 -328.88 817.51 -329.41 816.61 C-331.44 813.27 -333.65 810.07 -335.91 806.89 C-337 805 -337 805 -337 802 C-337.66 802 -338.32 802 -339 802 C-339.41 801.26 -339.41 801.26 -339.82 800.51 C-341.09 798.21 -342.36 795.92 -343.62 793.62 C-344.05 792.85 -344.48 792.08 -344.92 791.28 C-347.21 787.15 -349.55 783.06 -352 779.03 C-354.98 774.1 -357.67 769.05 -360.31 763.94 C-361.28 762.08 -362.24 760.23 -363.2 758.37 C-363.68 757.46 -364.15 756.55 -364.63 755.61 C-365.86 753.27 -367.1 750.93 -368.36 748.6 C-375.85 734.69 -382.65 720.46 -389 706 C-389.49 704.88 -389.98 703.77 -390.49 702.62 C-393.5 695.69 -396.28 688.72 -398.88 681.62 C-400.2 678.06 -401.59 674.57 -403.19 671.12 C-404.94 667.34 -406.08 663.49 -407.21 659.48 C-408.25 656.22 -409.66 653.19 -411.09 650.08 C-412.38 647.13 -413.17 644.1 -414 641 C-414.72 638.8 -415.47 636.6 -416.22 634.41 C-418.71 626.73 -420.68 618.88 -422.79 611.09 C-423.88 607.09 -424.97 603.08 -426.13 599.1 C-426.85 596.54 -427.45 594.04 -427.94 591.44 C-428.73 587.32 -429.6 583.22 -430.5 579.12 C-431.86 572.77 -432.99 566.42 -434 560 C-434.25 558.52 -434.5 557.04 -434.75 555.55 C-436.22 546.81 -437.36 538.26 -437.69 529.39 C-437.91 525.91 -437.91 525.91 -439.01 522.29 C-440.06 518.16 -440.27 514.18 -440.23 509.93 C-440.23 509.17 -440.23 508.41 -440.23 507.62 C-440.23 505.13 -440.21 502.65 -440.2 500.16 C-440.19 498.42 -440.19 496.68 -440.19 494.94 C-440.18 490.39 -440.16 485.84 -440.14 481.29 C-440.12 476.64 -440.11 471.99 -440.1 467.34 C-440.08 458.22 -440.04 449.11 -440 440 C-439.67 440 -439.34 440 -439 440 C-437.73 434.52 -437.59 429 -437.28 423.4 C-437 420 -437 420 -436 417 C-435.54 413.58 -435.14 410.15 -434.75 406.72 C-434.1 401.2 -434.1 401.2 -433 399 C-432.68 397.05 -432.39 395.09 -432.12 393.12 C-431.31 387.59 -430.14 382.26 -428.72 376.84 C-427.64 372.6 -426.84 368.3 -426 364 C-424.95 358.73 -423.62 353.72 -421.85 348.65 C-420.78 345.3 -419.93 341.9 -419.06 338.5 C-417.78 333.52 -416.23 328.93 -414 324.29 C-412.77 321.48 -411.93 318.63 -411.06 315.69 C-409.14 309.24 -406.66 303.17 -404 297 C-403.23 295.08 -402.46 293.17 -401.69 291.25 C-398.81 284.35 -395.44 277.72 -392.04 271.06 C-391.02 269.04 -390.02 267.02 -389.02 264.98 C-383.15 253.02 -377.07 241.01 -369.39 230.09 C-367.83 227.74 -366.46 225.3 -365.07 222.84 C-363.35 219.88 -361.47 217.03 -359.56 214.19 C-359.14 213.55 -358.71 212.92 -358.28 212.27 C-350.76 201.12 -342.96 190.12 -334.39 179.75 C-332.93 178.04 -332.93 178.04 -332 176 C-331.34 176 -330.68 176 -330 176 C-329.67 175.01 -329.34 174.02 -329 173 C-328.34 173 -327.68 173 -327 173 C-326.77 172.28 -326.55 171.56 -326.31 170.81 C-324.75 167.46 -322.66 165.53 -320 163 C-319.67 162.34 -319.34 161.68 -319 161 C-318.34 161 -317.68 161 -317 161 C-316.74 160.41 -316.47 159.82 -316.2 159.21 C-314.95 156.9 -313.65 155.48 -311.75 153.69 C-308.68 150.72 -305.93 147.62 -303.26 144.29 C-302.85 143.86 -302.43 143.44 -302 143 C-301.34 143 -300.68 143 -300 143 C-299.67 142.01 -299.34 141.02 -299 140 C-298.34 140 -297.68 140 -297 140 C-297 139.34 -297 138.68 -297 138 C-295.53 136.55 -295.53 136.55 -293.5 134.88 C-289.65 131.62 -286.14 128.15 -282.66 124.5 C-281 123 -281 123 -279 123 C-279 122.34 -279 121.68 -279 121 C-277.14 119.31 -277.14 119.31 -274.69 117.44 C-273.49 116.51 -273.49 116.51 -272.26 115.56 C-270 114 -270 114 -267 113 C-266.67 112.01 -266.34 111.02 -266 110 C-265.34 110 -264.68 110 -264 110 C-264 109.34 -264 108.68 -264 108 C-262.05 106.41 -262.05 106.41 -259.31 104.5 C-255.59 101.86 -251.93 99.19 -248.34 96.37 C-241.39 90.92 -234.16 86 -226.76 81.19 C-224.88 79.92 -223.06 78.57 -221.24 77.21 C-218 75 -218 75 -215 75 C-215 74.34 -215 73.68 -215 73 C-214.05 72.46 -213.1 71.93 -212.12 71.38 C-209.15 69.68 -206.23 67.92 -203.31 66.12 C-198.62 63.29 -193.78 60.84 -188.86 58.43 C-186.41 57.2 -184.01 55.92 -181.62 54.56 C-159.9 42.37 -136.89 32.81 -113.25 25.09 C-110.81 24.27 -108.44 23.41 -106.06 22.44 C-101.43 20.63 -96.55 19.58 -91.72 18.45 C-88 17.56 -84.52 16.5 -81 15 C-76.31 13.53 -71.62 12.49 -66.8 11.57 C-63.68 10.94 -60.6 10.19 -57.5 9.44 C-52.71 8.31 -48.08 7.63 -43.19 7.25 C-40.77 7.04 -40.77 7.04 -37.62 6 C-33.3 4.81 -29.14 4.52 -24.67 4.25 C-21.9 4.09 -21.9 4.09 -19 3 C-16.71 2.8 -14.42 2.64 -12.12 2.5 C-7.99 2.25 -4.04 1.92 0 1 C0 0.67 0 0.34 0 0 Z M15 123 C13.53 123.11 12.05 123.2 10.57 123.25 C9.78 123.28 8.98 123.31 8.16 123.35 C6.52 123.41 4.89 123.46 3.25 123.52 C-1.68 123.73 -6.23 124.38 -11.02 125.54 C-13.32 126.08 -15.59 126.36 -17.94 126.56 C-20.36 126.77 -21.82 126.91 -24 128 C-25.86 128.15 -25.86 128.15 -27.75 128.31 C-33.25 128.86 -38.36 130.45 -43.64 132.02 C-46.36 132.81 -49.04 133.49 -51.81 134.06 C-55.54 134.84 -59.08 135.95 -62.66 137.22 C-64.55 137.85 -66.46 138.41 -68.38 138.96 C-74.36 140.68 -80.17 142.85 -86 145 C-86.71 145.26 -87.41 145.52 -88.14 145.79 C-98.53 149.63 -108.46 154 -118.29 159.11 C-120.65 160.34 -123.05 161.51 -125.44 162.69 C-135 167.49 -144.02 173.06 -153.05 178.78 C-154.85 179.91 -156.66 181.02 -158.48 182.13 C-159.47 182.75 -160.47 183.37 -161.5 184 C-162.81 184.8 -162.81 184.8 -164.16 185.62 C-164.76 186.08 -165.37 186.53 -166 187 C-166 187.66 -166 188.32 -166 189 C-166.72 189.27 -167.44 189.54 -168.19 189.81 C-171 191 -173.48 192.27 -176 194 C-176 194.66 -176 195.32 -176 196 C-176.54 196.25 -177.07 196.5 -177.62 196.75 C-180.58 198.31 -183.3 200.03 -186 202 C-186 202.66 -186 203.32 -186 204 C-186.54 204.24 -187.08 204.47 -187.64 204.72 C-190.63 206.34 -193.11 208.35 -195.75 210.5 C-196.73 211.29 -197.72 212.09 -198.73 212.91 C-199.86 213.94 -199.86 213.94 -201 215 C-201 215.66 -201 216.32 -201 217 C-201.57 217.25 -202.14 217.49 -202.73 217.75 C-205.38 219.21 -207.19 220.93 -209.33 223.06 C-210.13 223.86 -210.93 224.66 -211.75 225.48 C-212.99 226.73 -212.99 226.73 -214.25 228 C-215.09 228.83 -215.93 229.67 -216.8 230.52 C-217.99 231.72 -217.99 231.72 -219.2 232.94 C-219.93 233.67 -220.66 234.4 -221.41 235.15 C-223.22 236.85 -223.22 236.85 -223 239 C-224.49 239.5 -224.49 239.5 -226 240 C-227.61 241.73 -229.14 243.53 -230.62 245.38 C-231.42 246.35 -232.22 247.33 -233.04 248.34 C-235.14 250.9 -235.14 250.9 -236 254 C-236.66 254 -237.32 254 -238 254 C-239.59 255.71 -239.59 255.71 -241.12 257.88 C-241.66 258.59 -242.2 259.31 -242.76 260.05 C-244.18 261.9 -244.18 261.9 -244 264 C-244.66 264 -245.32 264 -246 264 C-248.32 267.22 -248.32 267.22 -249 271 C-249.66 271 -250.32 271 -251 271 C-251 271.99 -251 272.98 -251 274 C-251.66 274 -252.32 274 -253 274 C-255.32 277.22 -255.32 277.22 -256 281 C-256.66 281 -257.32 281 -258 281 C-258.54 281.97 -259.07 282.94 -259.62 283.94 C-261.26 286.8 -263.01 289.53 -264.88 292.25 C-268.28 297.32 -271.14 302.61 -274 308 C-274.7 309.28 -275.4 310.57 -276.1 311.85 C-283.53 325.54 -289.97 339.47 -294.99 354.23 C-296.22 357.85 -297.54 361.35 -299.19 364.81 C-301.21 369.12 -302.25 373.57 -303.29 378.2 C-304 381 -304 381 -304.99 383.43 C-306.21 386.54 -306.84 389.6 -307.5 392.88 C-308.26 396.58 -309.05 400.18 -310.12 403.81 C-311.07 407.25 -311.45 410.54 -311.75 414.08 C-312 416 -312 416 -313 418 C-313.37 420.48 -313.7 422.95 -314 425.44 C-314.87 432.6 -314.87 432.6 -316 436 C-316.13 437.41 -316.22 438.82 -316.28 440.24 C-316.34 441.47 -316.34 441.47 -316.39 442.72 C-316.43 443.58 -316.46 444.43 -316.5 445.31 C-316.57 447 -316.64 448.68 -316.72 450.36 C-316.75 451.11 -316.78 451.85 -316.81 452.62 C-317 455 -317 455 -317.51 457.72 C-318.13 461.88 -318.14 465.93 -318.13 470.12 C-318.13 470.99 -318.13 471.86 -318.14 472.75 C-318.14 474.57 -318.13 476.39 -318.13 478.21 C-318.13 480.99 -318.13 483.77 -318.14 486.55 C-318.14 488.32 -318.13 490.1 -318.13 491.88 C-318.13 492.7 -318.14 493.53 -318.14 494.38 C-318.12 498.71 -317.81 502.73 -317 507 C-316.85 509.73 -316.73 512.46 -316.62 515.19 C-316.31 522.03 -315.58 528.73 -314.5 535.5 C-314.3 536.73 -314.3 536.73 -314.1 537.98 C-313.46 542.11 -313.46 542.11 -312 546 C-311.82 547.41 -311.68 548.83 -311.56 550.25 C-311.18 554.09 -310.27 557.35 -309 561 C-308.66 563.33 -308.32 565.66 -308 568 C-307.67 568.33 -307.34 568.66 -307 569 C-306.67 570.33 -306.39 571.66 -306.12 573 C-305.26 577.08 -304.08 580.96 -302.71 584.9 C-301.69 587.9 -300.86 590.95 -300 594 C-298.11 600.61 -296.26 606.94 -292.98 613.01 C-291.86 615.29 -291.07 617.59 -290.25 620 C-287.79 626.99 -284.38 633.46 -281 640.03 C-280.09 641.82 -279.22 643.63 -278.35 645.43 C-271.87 658.87 -264.24 672 -255.4 684.03 C-254 686 -254 686 -252.44 688.75 C-251.97 689.5 -251.49 690.24 -251 691 C-250.34 691 -249.68 691 -249 691 C-248.67 692.32 -248.34 693.64 -248 695 C-247.34 695 -246.68 695 -246 695 C-246 695.99 -246 696.98 -246 698 C-245.34 698 -244.68 698 -244 698 C-243.75 698.54 -243.5 699.07 -243.25 699.62 C-241.69 702.58 -239.97 705.3 -238 708 C-237.34 708 -236.68 708 -236 708 C-235.64 708.81 -235.64 708.81 -235.28 709.64 C-233.66 712.63 -231.65 715.11 -229.5 717.75 C-228.31 719.23 -228.31 719.23 -227.09 720.73 C-226.4 721.48 -225.71 722.23 -225 723 C-224.34 723 -223.68 723 -223 723 C-223 723.66 -223 724.32 -223 725 C-222.34 725 -221.68 725 -221 725 C-220.74 725.59 -220.47 726.18 -220.2 726.78 C-218.96 729.08 -217.65 730.61 -215.81 732.45 C-215.2 733.07 -214.58 733.69 -213.95 734.33 C-213.3 734.96 -212.66 735.6 -212 736.25 C-211.04 737.22 -211.04 737.22 -210.05 738.22 C-209.44 738.83 -208.82 739.45 -208.19 740.08 C-207.34 740.92 -207.34 740.92 -206.48 741.78 C-205.06 743.21 -205.06 743.21 -203 743 C-203 743.66 -203 744.32 -203 745 C-202.34 745 -201.68 745 -201 745 C-200.5 746.49 -200.5 746.49 -200 748 C-197.36 750.41 -197.36 750.41 -194 751 C-194 751.66 -194 752.32 -194 753 C-190.52 756.64 -190.52 756.64 -186 758 C-186 758.66 -186 759.32 -186 760 C-184.26 761.45 -182.46 762.81 -180.62 764.12 C-179.63 764.85 -178.63 765.57 -177.6 766.32 C-175.24 768.18 -175.24 768.18 -173 768 C-173 768.66 -173 769.32 -173 770 C-171.68 770.33 -170.36 770.66 -169 771 C-169 771.66 -169 772.32 -169 773 C-168.01 773 -167.02 773 -166 773 C-166 773.66 -166 774.32 -166 775 C-163.66 776.79 -163.66 776.79 -160.75 778.56 C-159.78 779.18 -158.8 779.8 -157.8 780.44 C-155.43 781.76 -153.64 782.54 -151 783 C-151 783.66 -151 784.32 -151 785 C-148.6 786.66 -148.6 786.66 -145.56 788.31 C-143.9 789.25 -143.9 789.25 -142.21 790.21 C-141.15 790.8 -140.09 791.39 -139 792 C-137.87 792.64 -137.87 792.64 -136.73 793.29 C-134.49 794.55 -132.25 795.77 -130 797 C-128.92 797.6 -127.85 798.19 -126.74 798.8 C-112.91 806.39 -98.69 812.62 -83.76 817.7 C-80.74 818.74 -77.81 819.87 -74.88 821.12 C-67.1 824.3 -58.83 826.05 -50.69 828.07 C-49.98 828.25 -49.27 828.42 -48.54 828.61 C-46.55 829.1 -44.55 829.58 -42.56 830.07 C-39 831 -39 831 -35.83 832.08 C-33.22 832.93 -30.97 833.34 -28.25 833.56 C-24.2 833.9 -24.2 833.9 -22 835 C-19.35 835.37 -16.72 835.7 -14.06 836 C-6.4 836.87 -6.4 836.87 -3 838 C-0.08 838.21 2.83 838.37 5.75 838.5 C7.33 838.57 8.91 838.64 10.48 838.72 C11.53 838.76 11.53 838.76 12.6 838.81 C15 839 15 839 18.23 839.51 C22.45 840.06 26.54 840.14 30.79 840.13 C31.6 840.13 32.42 840.13 33.27 840.14 C34.99 840.14 36.71 840.13 38.43 840.13 C41.06 840.13 43.68 840.13 46.31 840.14 C47.99 840.14 49.67 840.13 51.35 840.13 C52.13 840.13 52.9 840.14 53.71 840.14 C57.92 840.12 61.84 839.78 66 839 C68.73 838.85 71.46 838.73 74.19 838.62 C83.23 838.2 92.01 836.91 100.92 835.36 C102.73 835.05 104.55 834.77 106.37 834.5 C113 833.51 119.27 831.87 125.68 829.9 C129 829 129 829 132.36 828.57 C136.8 827.88 140.77 826.49 145 825 C146.67 824.45 148.34 823.9 150.02 823.35 C169.49 816.94 187.73 809.25 206 800 C207.92 799.04 209.83 798.08 211.75 797.12 C212.57 796.72 213.39 796.31 214.23 795.88 C214.82 795.59 215.4 795.3 216 795 C216 794.34 216 793.68 216 793 C216.57 792.89 217.13 792.77 217.72 792.65 C220.25 791.93 222.23 790.88 224.5 789.56 C227.3 787.96 230.1 786.42 233 785 C233 784.34 233 783.68 233 783 C233.81 782.86 233.81 782.86 234.64 782.71 C237.7 781.79 240.06 780.28 242.75 778.56 C243.73 777.95 244.72 777.33 245.73 776.69 C246.48 776.13 247.23 775.58 248 775 C248 774.34 248 773.68 248 773 C248.66 772.79 249.32 772.59 250 772.38 C254.07 770.51 257.69 768.02 261 765 C261 764.34 261 763.68 261 763 C261.72 762.75 262.43 762.5 263.17 762.25 C266.31 760.86 268.64 759.16 271.31 757 C272.2 756.3 273.08 755.6 273.99 754.88 C274.65 754.26 275.32 753.64 276 753 C276 752.34 276 751.68 276 751 C276.56 750.75 277.11 750.5 277.69 750.25 C280.42 748.77 282.68 747.07 285 745 C285 744.34 285 743.68 285 743 C285.99 742.67 286.98 742.34 288 742 C288 741.34 288 740.68 288 740 C288.66 740 289.32 740 290 740 C290 739.34 290 738.68 290 738 C290.58 737.75 291.15 737.5 291.75 737.25 C294.33 735.82 296.06 734.22 298 732 C298 731.34 298 730.68 298 730 C298.66 730 299.32 730 300 730 C300 729.34 300 728.68 300 728 C300.99 727.67 301.98 727.34 303 727 C303 726.34 303 725.68 303 725 C303.66 725 304.32 725 305 725 C306.46 723.39 307.84 721.71 309.19 720 C312.02 716.45 314.88 712.98 317.94 709.62 C320.35 706.91 322 704.56 323 701 C323.66 701 324.32 701 325 701 C326.45 699.26 327.81 697.46 329.12 695.62 C329.85 694.63 330.57 693.63 331.32 692.6 C333.18 690.24 333.18 690.24 333 688 C333.66 688 334.32 688 335 688 C335.58 686.95 336.15 685.9 336.75 684.81 C338.12 682.38 339.46 680.43 341.25 678.25 C343.31 676.08 343.31 676.08 343 673 C343.66 673 344.32 673 345 673 C345.61 671.86 345.61 671.86 346.24 670.7 C347.05 669.21 347.05 669.21 347.88 667.69 C348.41 666.7 348.94 665.72 349.49 664.7 C351 662 351 662 353 659 C353 658.01 353 657.02 353 656 C353.66 656 354.32 656 355 656 C355.41 655.17 355.83 654.35 356.25 653.5 C356.83 652.35 357.4 651.19 358 650 C358.31 649.37 358.63 648.74 358.95 648.09 C360.6 644.78 362.26 641.49 363.96 638.21 C371.3 624.02 377.22 609.24 382 594 C382.48 592.56 382.95 591.12 383.43 589.68 C386.6 580.03 389.18 570.41 391.24 560.46 C392 557 392 557 393 555 C393.18 553.5 393.32 552 393.44 550.5 C394 544.42 395.21 538.54 396.54 532.59 C397.98 525.63 398.38 518.73 398.66 511.64 C398.69 510.85 398.72 510.07 398.75 509.26 C398.78 508.56 398.8 507.86 398.83 507.14 C399 505 399 505 399.5 502.71 C400.14 499.25 400.16 495.84 400.17 492.33 C400.17 491.59 400.18 490.84 400.18 490.08 C400.19 487.66 400.19 485.23 400.19 482.81 C400.19 481.58 400.19 481.58 400.19 480.31 C400.18 469.62 399.95 458.98 399.12 448.31 C399.05 447.3 398.97 446.29 398.89 445.25 C398.41 439.83 397.62 434.59 396.45 429.28 C395.83 426.14 395.52 423 395.25 419.81 C395.09 417.9 395.09 417.9 394 416 C393.85 414.14 393.85 414.14 393.69 412.25 C393.15 406.77 391.56 401.68 389.94 396.43 C389 393 389 393 388.5 389.38 C388.03 386.23 387.26 383.91 386 381 C385.38 379.03 384.78 377.05 384.19 375.06 C382.02 367.95 379.59 360.97 377 354 C376.74 353.3 376.49 352.6 376.22 351.89 C372.4 341.53 368.05 331.65 362.95 321.86 C361.49 319.01 360.13 316.13 358.75 313.25 C352.57 300.89 345.37 288.84 337.21 277.68 C336 276 336 276 335 274 C334.34 274 333.68 274 333 274 C333 273.01 333 272.02 333 271 C332.34 271 331.68 271 331 271 C330.67 269.68 330.34 268.36 330 267 C329.34 267 328.68 267 328 267 C328 266.01 328 265.02 328 264 C327.34 264 326.68 264 326 264 C325.75 263.46 325.5 262.93 325.25 262.38 C323.69 259.42 321.97 256.7 320 254 C319.34 254 318.68 254 318 254 C317.76 253.46 317.53 252.92 317.28 252.36 C315.66 249.37 313.65 246.89 311.5 244.25 C310.71 243.27 309.91 242.28 309.09 241.27 C308.06 240.14 308.06 240.14 307 239 C306.34 239 305.68 239 305 239 C305 238.34 305 237.68 305 237 C304.34 237 303.68 237 303 237 C302.6 236.12 302.6 236.12 302.2 235.22 C300.96 232.92 299.65 231.39 297.81 229.55 C297.2 228.93 296.58 228.31 295.95 227.67 C294.98 226.72 294.98 226.72 294 225.75 C293.04 224.78 293.04 224.78 292.05 223.78 C291.44 223.17 290.82 222.55 290.19 221.92 C289.62 221.36 289.06 220.8 288.48 220.22 C287.06 218.79 287.06 218.79 285 219 C285 218.34 285 217.68 285 217 C284.34 217 283.68 217 283 217 C282.67 216.01 282.34 215.02 282 214 C280.27 212.39 278.47 210.86 276.62 209.38 C275.65 208.58 274.67 207.78 273.66 206.96 C271.1 204.86 271.1 204.86 268 204 C268 203.34 268 202.68 268 202 C266.29 200.41 266.29 200.41 264.12 198.88 C263.41 198.34 262.69 197.8 261.95 197.24 C260.1 195.82 260.1 195.82 258 196 C258 195.34 258 194.68 258 194 C257.01 194 256.02 194 255 194 C255 193.34 255 192.68 255 192 C252.84 190.41 250.69 188.94 248.44 187.5 C247.06 186.6 245.67 185.7 244.29 184.8 C243.58 184.33 242.87 183.87 242.13 183.4 C240.09 182.06 238.07 180.7 236.05 179.33 C228.89 174.46 221.69 170 214 166 C212.72 165.31 211.45 164.61 210.18 163.92 C197.29 156.92 184.11 150.61 170.25 145.8 C168.23 145.08 166.28 144.3 164.31 143.44 C157.09 140.3 150.02 138.16 142.37 136.36 C137.1 135.1 137.1 135.1 136 134 C134.85 133.84 133.69 133.67 132.5 133.5 C129 133 129 133 128 132 C126.19 131.63 124.38 131.3 122.56 131 C117.22 130.11 117.22 130.11 115 129 C113.5 128.8 112 128.64 110.5 128.5 C106.22 128.11 106.22 128.11 104 127 C101.17 126.45 98.35 125.95 95.5 125.5 C94.24 125.3 94.24 125.3 92.95 125.09 C86.3 124.08 79.69 123.55 72.96 123.29 C70.04 123.18 67.21 123.04 64.33 122.5 C60.15 121.87 56.09 121.86 51.88 121.87 C51.01 121.87 50.14 121.87 49.25 121.86 C47.43 121.86 45.61 121.87 43.79 121.87 C41.01 121.87 38.23 121.87 35.45 121.86 C33.68 121.86 31.9 121.87 30.12 121.87 C28.89 121.86 28.89 121.86 27.62 121.86 C23.29 121.88 19.27 122.2 15 123 Z " fill="#F84D0F" transform="translate(599,39)"/>
<path d="M0 0 C0.56 0.47 1.11 0.94 1.69 1.42 C1.69 2.08 1.69 2.74 1.69 3.42 C2.49 3.73 2.49 3.73 3.31 4.04 C6.61 5.95 9.28 8.47 11.69 11.42 C11.69 12.08 11.69 12.74 11.69 13.42 C12.68 13.75 13.67 14.08 14.69 14.42 C14.69 15.08 14.69 15.74 14.69 16.42 C15.35 16.42 16.01 16.42 16.69 16.42 C18.34 18.55 19.84 20.67 21.31 22.92 C21.76 23.59 22.2 24.26 22.65 24.95 C29.42 35.42 34.87 46.55 38.69 58.42 C39.08 59.54 39.08 59.54 39.48 60.68 C44.16 74.73 44.99 88.85 45.06 103.54 C45.07 104.26 45.08 104.97 45.09 105.71 C45.35 136.47 34.04 163.83 14.69 187.42 C14.17 188.09 13.65 188.77 13.11 189.46 C6.13 198.23 -3.97 205.37 -13.31 211.42 C-13.97 211.42 -14.63 211.42 -15.31 211.42 C-15.31 212.78 -15.31 212.78 -15.3 214.16 C-15.19 236.23 -15.11 258.3 -15.05 280.37 C-15.03 291.04 -14.99 301.71 -14.94 312.39 C-14.89 321.69 -14.85 331 -14.84 340.31 C-14.84 345.23 -14.82 350.15 -14.78 355.08 C-14.75 359.72 -14.74 364.36 -14.75 369.01 C-14.75 370.7 -14.74 372.4 -14.72 374.1 C-14.59 385.58 -16.1 393.99 -21.31 404.42 C-21.97 404.42 -22.63 404.42 -23.31 404.42 C-23.55 405.16 -23.79 405.9 -24.04 406.67 C-27.19 413.49 -34.8 417.51 -41.44 420.42 C-52.33 424.19 -63.58 423.84 -74.18 419.25 C-79.96 415.86 -84.86 411.4 -89.31 406.42 C-89.31 405.76 -89.31 405.1 -89.31 404.42 C-89.97 404.42 -90.63 404.42 -91.31 404.42 C-92.13 402.67 -92.94 400.92 -93.75 399.17 C-94.2 398.19 -94.65 397.22 -95.12 396.21 C-97.18 391.38 -97.44 387.46 -97.43 382.18 C-97.43 381.45 -97.43 380.72 -97.44 379.97 C-97.44 377.52 -97.43 375.07 -97.43 372.62 C-97.43 370.87 -97.43 369.12 -97.43 367.36 C-97.43 362.6 -97.42 357.83 -97.41 353.07 C-97.41 348.09 -97.41 343.11 -97.41 338.13 C-97.4 328.71 -97.39 319.28 -97.38 309.85 C-97.37 299.12 -97.37 288.39 -97.36 277.65 C-97.35 255.58 -97.33 233.5 -97.31 211.42 C-98.08 211.13 -98.84 210.84 -99.63 210.54 C-110.71 205.9 -120.74 195.51 -128.31 186.42 C-129.12 185.47 -129.92 184.52 -130.75 183.54 C-132.31 181.42 -132.31 181.42 -132.31 179.42 C-132.97 179.42 -133.63 179.42 -134.31 179.42 C-134.31 178.43 -134.31 177.44 -134.31 176.42 C-134.97 176.42 -135.63 176.42 -136.31 176.42 C-139.01 171.77 -141.68 167.1 -144.31 162.42 C-144.81 161.54 -145.31 160.66 -145.82 159.75 C-148.98 153.82 -150.81 147.71 -152.52 141.23 C-153.03 138.54 -153.03 138.54 -154.31 137.42 C-161.26 113.26 -159.51 81.94 -151.31 58.42 C-150.94 57.27 -150.56 56.12 -150.17 54.93 C-145.74 41.87 -139.11 30.71 -131.31 19.42 C-130.65 18.43 -129.99 17.44 -129.31 16.42 C-128.65 16.42 -127.99 16.42 -127.31 16.42 C-126.98 15.43 -126.65 14.44 -126.31 13.42 C-125.65 13.42 -124.99 13.42 -124.31 13.42 C-124.11 12.88 -123.9 12.35 -123.69 11.79 C-121.78 8.5 -119.26 5.82 -116.31 3.42 C-115.65 3.42 -114.99 3.42 -114.31 3.42 C-114.31 2.76 -114.31 2.1 -114.31 1.42 C-104.44 -6.94 -93.48 -12.45 -81.31 -16.58 C-80.36 -16.91 -79.41 -17.23 -78.43 -17.56 C-49.93 -25.65 -23.4 -16.01 0 0 Z " fill="#F84D0F" transform="translate(816.3125,318.58203125)"/>
<path d="M0 0 C5.03 3.44 8.04 7.36 9.75 13.2 C10.15 16.65 10.13 20.06 10.09 23.54 C10.09 25.06 10.09 25.06 10.09 26.61 C10.09 29.95 10.07 33.29 10.04 36.63 C10.04 38.95 10.03 41.27 10.03 43.59 C10.02 49.69 9.99 55.79 9.96 61.89 C9.93 68.11 9.91 74.34 9.9 80.57 C9.86 92.78 9.81 104.99 9.75 117.2 C22.29 117.2 34.83 117.2 47.75 117.2 C47.72 112.53 47.72 112.53 47.69 107.78 C47.62 97.49 47.58 87.21 47.54 76.93 C47.52 70.7 47.49 64.46 47.45 58.23 C47.4 52.22 47.38 46.2 47.37 40.18 C47.36 37.89 47.35 35.59 47.33 33.3 C47.3 30.08 47.29 26.87 47.3 23.65 C47.28 22.71 47.27 21.76 47.25 20.79 C47.3 13.81 48.89 8.51 53.5 3.17 C59.32 -1.48 63.64 -3.29 71.19 -3.12 C77.66 -2.32 82.68 1.2 86.75 6.2 C89.89 12.07 90.17 16.94 90.09 23.54 C90.09 25.06 90.09 25.06 90.09 26.61 C90.09 29.95 90.07 33.29 90.04 36.63 C90.04 38.95 90.03 41.27 90.03 43.59 C90.02 49.69 89.99 55.79 89.96 61.89 C89.93 68.11 89.91 74.34 89.9 80.57 C89.86 92.78 89.81 104.99 89.75 117.2 C102.29 117.2 114.83 117.2 127.75 117.2 C127.73 114.09 127.71 110.98 127.69 107.78 C127.62 97.49 127.58 87.21 127.54 76.93 C127.52 70.7 127.49 64.46 127.45 58.23 C127.4 52.22 127.38 46.2 127.37 40.18 C127.36 37.89 127.35 35.59 127.33 33.3 C127.3 30.08 127.29 26.87 127.3 23.65 C127.28 22.71 127.27 21.76 127.25 20.79 C127.3 13.81 128.89 8.51 133.5 3.17 C139.32 -1.48 143.64 -3.29 151.19 -3.12 C157.66 -2.32 162.68 1.2 166.75 6.2 C169.28 11.22 170.13 14.87 170.14 20.57 C170.15 21.28 170.16 21.99 170.16 22.72 C170.18 25.08 170.17 27.44 170.17 29.8 C170.18 31.5 170.19 33.2 170.2 34.9 C170.22 39.5 170.22 44.11 170.22 48.72 C170.22 52.57 170.23 56.43 170.24 60.28 C170.25 69.39 170.26 78.5 170.25 87.61 C170.24 96.98 170.27 106.34 170.3 115.7 C170.34 123.77 170.35 131.83 170.34 139.89 C170.34 144.7 170.35 149.5 170.37 154.31 C170.39 158.84 170.39 163.36 170.37 167.89 C170.37 169.54 170.37 171.19 170.39 172.84 C170.54 191.98 165.41 207.69 152.1 221.88 C142.88 230.99 129.87 238.96 116.5 239.24 C115.7 239.24 114.89 239.23 114.07 239.23 C113.26 239.22 112.45 239.22 111.62 239.21 C111 239.21 110.38 239.2 109.75 239.2 C109.76 240.47 109.76 240.47 109.76 241.77 C109.87 262.46 109.96 283.15 110.01 303.84 C110.03 313.85 110.07 323.86 110.13 333.86 C110.18 342.59 110.21 351.32 110.22 360.04 C110.23 364.66 110.24 369.28 110.28 373.89 C110.31 378.25 110.32 382.6 110.32 386.96 C110.32 388.55 110.33 390.13 110.35 391.72 C110.47 402.77 108.74 411.21 103.75 421.2 C103.09 421.2 102.43 421.2 101.75 421.2 C101.51 421.94 101.27 422.68 101.02 423.45 C97.87 430.27 90.27 434.28 83.62 437.2 C72.73 440.96 61.48 440.62 50.88 436.03 C45.1 432.64 40.21 428.18 35.75 423.2 C35.75 422.54 35.75 421.88 35.75 421.2 C35.09 421.2 34.43 421.2 33.75 421.2 C32.93 419.45 32.12 417.7 31.31 415.95 C30.86 414.97 30.41 414 29.94 412.99 C27.94 408.3 27.63 404.5 27.63 399.37 C27.63 398.69 27.63 398 27.63 397.3 C27.63 395 27.63 392.71 27.64 390.41 C27.64 388.77 27.64 387.12 27.64 385.47 C27.64 381 27.64 376.54 27.65 372.07 C27.65 367.4 27.66 362.73 27.66 358.06 C27.66 349.21 27.67 340.37 27.68 331.53 C27.69 321.46 27.69 311.39 27.7 301.33 C27.71 280.62 27.73 259.91 27.75 239.2 C27.15 239.21 26.54 239.22 25.92 239.23 C25.12 239.23 24.32 239.24 23.5 239.25 C22.71 239.26 21.92 239.27 21.11 239.28 C17.48 239.15 14.25 238.21 10.81 237.07 C10.12 236.84 9.43 236.62 8.71 236.39 C-5.72 231.46 -18.34 221.02 -25.68 207.57 C-31.47 195.47 -32.69 184.22 -32.65 171.01 C-32.66 169.3 -32.67 167.58 -32.67 165.87 C-32.69 161.25 -32.69 156.63 -32.69 152.01 C-32.68 148.14 -32.69 144.27 -32.69 140.4 C-32.71 131.28 -32.71 122.16 -32.7 113.04 C-32.68 103.64 -32.7 94.24 -32.73 84.84 C-32.75 76.76 -32.75 68.67 -32.75 60.58 C-32.74 55.76 -32.75 50.94 -32.76 46.11 C-32.78 41.58 -32.78 37.05 -32.76 32.52 C-32.75 30.86 -32.76 29.2 -32.77 27.54 C-32.87 10.54 -32.87 10.54 -26.5 3.17 C-18.34 -3.35 -9.52 -5.49 0 0 Z " fill="#F84D0F" transform="translate(451.25,301.8046875)"/>
<path d="M0 0 C0.33 0 0.66 0 1 0 C1 17.82 1 35.64 1 54 C0.67 54 0.34 54 0 54 C0 36.18 0 18.36 0 0 Z " fill="#FBFDFD" transform="translate(1120,493)"/>
<path d="M0 0 C3.96 0 7.92 0 12 0 C12 0.33 12 0.66 12 1 C8.04 1 4.08 1 0 1 C0 0.67 0 0.34 0 0 Z " fill="#FBFDFD" transform="translate(634,1240)"/>
</svg>
